Roman_opsz7_wght700.ufo
<glyph name="dollar" format="2">
  <advance width="647"/>
  <unicode hex="0024"/>
  <outline>
    <contour>
      <point x="351" y="643" type="line"/>
      <point x="382" y="641"/>
      <point x="452" y="633"/>
      <point x="487" y="586" type="curve"/>
      <point x="486" y="586"/>
      <point x="432" y="573"/>
      <point x="432" y="516" type="curve" smooth="yes"/>
      <point x="432" y="474"/>
      <point x="464" y="447"/>
      <point x="501" y="447" type="curve" smooth="yes"/>
      <point x="530" y="447"/>
      <point x="571" y="465"/>
      <point x="571" y="520" type="curve" smooth="yes"/>
      <point x="571" y="610"/>
      <point x="508" y="691"/>
      <point x="351" y="699" type="curve"/>
      <point x="351" y="750" type="line"/>
      <point x="295" y="750" type="line"/>
      <point x="295" y="699" type="line"/>
      <point x="125" y="686"/>
      <point x="75" y="576"/>
      <point x="75" y="495" type="curve" smooth="yes"/>
      <point x="75" y="415"/>
      <point x="128" y="366"/>
      <point x="140" y="355" type="curve" smooth="yes"/>
      <point x="193" y="310"/>
      <point x="239" y="301"/>
      <point x="295" y="289" type="curve"/>
      <point x="295" y="51" type="line"/>
      <point x="248" y="55"/>
      <point x="185" y="71"/>
      <point x="155" y="123" type="curve"/>
      <point x="210" y="133"/>
      <point x="214" y="178"/>
      <point x="214" y="191" type="curve" smooth="yes"/>
      <point x="214" y="237"/>
      <point x="179" y="261"/>
      <point x="145" y="261" type="curve" smooth="yes"/>
      <point x="117" y="261"/>
      <point x="75" y="244"/>
      <point x="75" y="188" type="curve" smooth="yes"/>
      <point x="75" y="94"/>
      <point x="138" y="5"/>
      <point x="295" y="-5" type="curve"/>
      <point x="295" y="-56" type="line"/>
      <point x="351" y="-56" type="line"/>
      <point x="351" y="-5" type="line"/>
      <point x="523" y="10"/>
      <point x="571" y="129"/>
      <point x="571" y="212" type="curve" smooth="yes"/>
      <point x="571" y="277"/>
      <point x="534" y="401"/>
      <point x="351" y="432" type="curve"/>
    </contour>
    <contour>
      <point x="295" y="443" type="line"/>
      <point x="211" y="458"/>
      <point x="164" y="493"/>
      <point x="164" y="544" type="curve" smooth="yes"/>
      <point x="164" y="578"/>
      <point x="190" y="634"/>
      <point x="295" y="643" type="curve"/>
    </contour>
    <contour>
      <point x="351" y="278" type="line"/>
      <point x="433" y="266"/>
      <point x="482" y="219"/>
      <point x="482" y="164" type="curve" smooth="yes"/>
      <point x="482" y="105"/>
      <point x="433" y="58"/>
      <point x="351" y="51" type="curve"/>
    </contour>
  </outline>
</glyph>
<glyph name="asterisk" format="2">
  <advance width="647"/>
  <unicode hex="002A"/>
  <outline>
    <contour>
      <point x="348" y="489" type="line"/>
      <point x="481" y="397" type="line" smooth="yes"/>
      <point x="495" y="387"/>
      <point x="505" y="387"/>
      <point x="509" y="387" type="curve" smooth="yes"/>
      <point x="537" y="387"/>
      <point x="559" y="412"/>
      <point x="559" y="441" type="curve" smooth="yes"/>
      <point x="559" y="475"/>
      <point x="546" y="479"/>
      <point x="487" y="497" type="curve" smooth="yes"/>
      <point x="387" y="528" type="line"/>
      <point x="522" y="570" type="line" smooth="yes"/>
      <point x="537" y="575"/>
      <point x="559" y="581"/>
      <point x="559" y="615" type="curve" smooth="yes"/>
      <point x="559" y="644"/>
      <point x="537" y="669"/>
      <point x="509" y="669" type="curve" smooth="yes"/>
      <point x="498" y="669"/>
      <point x="492" y="666"/>
      <point x="482" y="659" type="curve" smooth="yes"/>
      <point x="348" y="567" type="line"/>
      <point x="374" y="707" type="line"/>
      <point x="374" y="730"/>
      <point x="352" y="750"/>
      <point x="323" y="750" type="curve" smooth="yes"/>
      <point x="294" y="750"/>
      <point x="272" y="730"/>
      <point x="272" y="707" type="curve" smooth="yes"/>
      <point x="272" y="705"/>
      <point x="273" y="699"/>
      <point x="275" y="689" type="curve" smooth="yes"/>
      <point x="298" y="567" type="line"/>
      <point x="165" y="659" type="line" smooth="yes"/>
      <point x="151" y="669"/>
      <point x="141" y="669"/>
      <point x="137" y="669" type="curve" smooth="yes"/>
      <point x="109" y="669"/>
      <point x="87" y="644"/>
      <point x="87" y="615" type="curve" smooth="yes"/>
      <point x="87" y="581"/>
      <point x="110" y="574"/>
      <point x="124" y="570" type="curve" smooth="yes"/>
      <point x="262" y="528" type="line"/>
      <point x="124" y="486" type="line" smooth="yes"/>
      <point x="110" y="482"/>
      <point x="87" y="475"/>
      <point x="87" y="441" type="curve" smooth="yes"/>
      <point x="87" y="412"/>
      <point x="109" y="387"/>
      <point x="137" y="387" type="curve" smooth="yes"/>
      <point x="150" y="387"/>
      <point x="152" y="389"/>
      <point x="173" y="403" type="curve" smooth="yes"/>
      <point x="297" y="488" type="line"/>
      <point x="272" y="349" type="line"/>
      <point x="272" y="326"/>
      <point x="294" y="306"/>
      <point x="323" y="306" type="curve" smooth="yes"/>
      <point x="352" y="306"/>
      <point x="374" y="326"/>
      <point x="374" y="349" type="curve" smooth="yes"/>
      <point x="374" y="351"/>
      <point x="373" y="357"/>
      <point x="371" y="367" type="curve" smooth="yes"/>
    </contour>
  </outline>
</glyph>
<glyph name="plus" format="2">
  <advance width="1002"/>
  <unicode hex="002B"/>
  <outline>
    <contour>
      <point x="537" y="214" type="line"/>
      <point x="878" y="214" type="line" smooth="yes"/>
      <point x="889" y="214"/>
      <point x="926" y="214"/>
      <point x="926" y="250" type="curve" smooth="yes"/>
      <point x="926" y="287"/>
      <point x="890" y="287"/>
      <point x="878" y="287" type="curve" smooth="yes"/>
      <point x="537" y="287" type="line"/>
      <point x="537" y="628" type="line" smooth="yes"/>
      <point x="537" y="639"/>
      <point x="537" y="676"/>
      <point x="501" y="676" type="curve" smooth="yes"/>
      <point x="464" y="676"/>
      <point x="464" y="640"/>
      <point x="464" y="628" type="curve" smooth="yes"/>
      <point x="464" y="287" type="line"/>
      <point x="123" y="287" type="line" smooth="yes"/>
      <point x="112" y="287"/>
      <point x="75" y="287"/>
      <point x="75" y="251" type="curve" smooth="yes"/>
      <point x="75" y="214"/>
      <point x="111" y="214"/>
      <point x="123" y="214" type="curve" smooth="yes"/>
      <point x="464" y="214" type="line"/>
      <point x="464" y="-127" type="line" smooth="yes"/>
      <point x="464" y="-138"/>
      <point x="464" y="-175"/>
      <point x="500" y="-175" type="curve" smooth="yes"/>
      <point x="537" y="-175"/>
      <point x="537" y="-139"/>
      <point x="537" y="-127" type="curve" smooth="yes"/>
    </contour>
  </outline>
</glyph>
<glyph name="period" format="2">
  <advance width="363"/>
  <unicode hex="002E"/>
  <outline>
    <contour>
      <point x="263" y="81" type="curve" smooth="yes"/>
      <point x="263" y="129"/>
      <point x="224" y="163"/>
      <point x="182" y="163" type="curve" smooth="yes"/>
      <point x="134" y="163"/>
      <point x="100" y="124"/>
      <point x="100" y="82" type="curve" smooth="yes"/>
      <point x="100" y="34"/>
      <point x="139" y="0"/>
      <point x="181" y="0" type="curve" smooth="yes"/>
      <point x="229" y="0"/>
      <point x="263" y="39"/>
    </contour>
  </outline>
</glyph>
<glyph name="zero" format="2">
  <advance width="647"/>
  <unicode hex="0030"/>
  <outline>
    <contour>
      <point x="592" y="318" type="curve" smooth="yes"/>
      <point x="592" y="441"/>
      <point x="579" y="656"/>
      <point x="323" y="656" type="curve" smooth="yes"/>
      <point x="67" y="656"/>
      <point x="54" y="440"/>
      <point x="54" y="318" type="curve" smooth="yes"/>
      <point x="54" y="192"/>
      <point x="70" y="-12"/>
      <point x="323" y="-12" type="curve" smooth="yes"/>
      <point x="576" y="-12"/>
      <point x="592" y="191"/>
    </contour>
    <contour>
      <point x="323" y="34" type="curve" smooth="yes"/>
      <point x="291" y="34"/>
      <point x="261" y="45"/>
      <point x="237" y="66" type="curve" smooth="yes"/>
      <point x="210" y="89"/>
      <point x="193" y="104"/>
      <point x="193" y="331" type="curve" smooth="yes"/>
      <point x="193" y="400"/>
      <point x="193" y="479"/>
      <point x="204" y="527" type="curve" smooth="yes"/>
      <point x="220" y="592"/>
      <point x="282" y="610"/>
      <point x="323" y="610" type="curve" smooth="yes"/>
      <point x="361" y="610"/>
      <point x="426" y="594"/>
      <point x="442" y="525" type="curve" smooth="yes"/>
      <point x="453" y="478"/>
      <point x="453" y="395"/>
      <point x="453" y="331" type="curve" smooth="yes"/>
      <point x="453" y="261"/>
      <point x="453" y="188"/>
      <point x="443" y="132" type="curve" smooth="yes"/>
      <point x="429" y="51"/>
      <point x="360" y="34"/>
    </contour>
  </outline>
</glyph>
<glyph name="seven" format="2">
  <advance width="647"/>
  <unicode hex="0037"/>
  <outline>
    <contour>
      <point x="373" y="644" type="line" smooth="yes"/>
      <point x="349" y="645"/>
      <point x="326" y="647"/>
      <point x="302" y="648" type="curve" smooth="yes"/>
      <point x="233" y="651" type="line"/>
      <point x="226" y="650"/>
      <point x="224" y="650"/>
      <point x="218" y="650" type="curve" smooth="yes"/>
      <point x="180" y="650"/>
      <point x="178" y="663"/>
      <point x="176" y="674" type="curve"/>
      <point x="113" y="674" type="line"/>
      <point x="75" y="416" type="line"/>
      <point x="138" y="416" type="line"/>
      <point x="146" y="473"/>
      <point x="159" y="501"/>
      <point x="169" y="502" type="curve"/>
      <point x="172" y="503"/>
      <point x="212" y="507"/>
      <point x="282" y="507" type="curve" smooth="yes"/>
      <point x="445" y="507" type="line"/>
      <point x="418" y="477"/>
      <point x="405" y="466"/>
      <point x="371" y="430" type="curve" smooth="yes"/>
      <point x="303" y="357"/>
      <point x="219" y="218"/>
      <point x="219" y="65" type="curve" smooth="yes"/>
      <point x="219" y="-12"/>
      <point x="283" y="-12"/>
      <point x="288" y="-12" type="curve" smooth="yes"/>
      <point x="320" y="-12"/>
      <point x="337" y="6"/>
      <point x="342" y="11" type="curve"/>
      <point x="358" y="30"/>
      <point x="358" y="40"/>
      <point x="358" y="107" type="curve" smooth="yes"/>
      <point x="358" y="268"/>
      <point x="387" y="357"/>
      <point x="447" y="418" type="curve" smooth="yes"/>
      <point x="617" y="593" type="line"/>
      <point x="619" y="596"/>
      <point x="621" y="599"/>
      <point x="622" y="602" type="curve"/>
      <point x="624" y="605"/>
      <point x="624" y="607"/>
      <point x="624" y="644" type="curve"/>
    </contour>
  </outline>
</glyph>
<glyph name="eight" format="2">
  <advance width="647"/>
  <unicode hex="0038"/>
  <outline>
    <contour>
      <point x="448" y="369" type="curve"/>
      <point x="520" y="404"/>
      <point x="553" y="450"/>
      <point x="553" y="507" type="curve" smooth="yes"/>
      <point x="553" y="656"/>
      <point x="364" y="656"/>
      <point x="326" y="656" type="curve" smooth="yes"/>
      <point x="164" y="656"/>
      <point x="93" y="575"/>
      <point x="93" y="478" type="curve" smooth="yes"/>
      <point x="93" y="385"/>
      <point x="179" y="336"/>
      <point x="189" y="330" type="curve"/>
      <point x="110" y="299"/>
      <point x="57" y="246"/>
      <point x="57" y="163" type="curve" smooth="yes"/>
      <point x="57" y="2"/>
      <point x="240" y="-12"/>
      <point x="321" y="-12" type="curve" smooth="yes"/>
      <point x="504" y="-12"/>
      <point x="589" y="77"/>
      <point x="589" y="188" type="curve" smooth="yes"/>
      <point x="589" y="299"/>
      <point x="491" y="347"/>
    </contour>
    <contour>
      <point x="227" y="481" type="line" smooth="yes"/>
      <point x="192" y="499"/>
      <point x="181" y="517"/>
      <point x="181" y="537" type="curve" smooth="yes"/>
      <point x="181" y="588"/>
      <point x="232" y="610"/>
      <point x="320" y="610" type="curve" smooth="yes"/>
      <point x="412" y="610"/>
      <point x="465" y="573"/>
      <point x="465" y="506" type="curve" smooth="yes"/>
      <point x="465" y="456"/>
      <point x="434" y="423"/>
      <point x="390" y="399" type="curve"/>
    </contour>
    <contour>
      <point x="253" y="298" type="curve"/>
      <point x="395" y="227" type="line" smooth="yes"/>
      <point x="449" y="199"/>
      <point x="487" y="180"/>
      <point x="487" y="135" type="curve" smooth="yes"/>
      <point x="487" y="57"/>
      <point x="400" y="39"/>
      <point x="325" y="39" type="curve" smooth="yes"/>
      <point x="229" y="39"/>
      <point x="159" y="79"/>
      <point x="159" y="163" type="curve" smooth="yes"/>
      <point x="159" y="225"/>
      <point x="195" y="269"/>
    </contour>
  </outline>
</glyph>
<glyph name="D" format="2">
  <advance width="985"/>
  <unicode hex="0044"/>
  <outline>
    <contour>
      <point x="57" y="686" type="line"/>
      <point x="57" y="630" type="line"/>
      <point x="164" y="630" type="line"/>
      <point x="164" y="56" type="line"/>
      <point x="57" y="56" type="line"/>
      <point x="57" y="0" type="line"/>
      <point x="526" y="0" type="line" smooth="yes"/>
      <point x="746" y="0"/>
      <point x="909" y="127"/>
      <point x="909" y="338" type="curve" smooth="yes"/>
      <point x="909" y="547"/>
      <point x="753" y="686"/>
      <point x="525" y="686" type="curve" smooth="yes"/>
    </contour>
    <contour>
      <point x="308" y="56" type="line"/>
      <point x="308" y="630" type="line"/>
      <point x="483" y="630" type="line" smooth="yes"/>
      <point x="753" y="630"/>
      <point x="753" y="429"/>
      <point x="753" y="338" type="curve" smooth="yes"/>
      <point x="753" y="248"/>
      <point x="753" y="56"/>
      <point x="484" y="56" type="curve" smooth="yes"/>
    </contour>
  </outline>
</glyph>
<glyph name="H" format="2">
  <advance width="1002"/>
  <unicode hex="0048"/>
  <outline>
    <contour>
      <point x="837" y="630" type="line"/>
      <point x="944" y="630" type="line"/>
      <point x="944" y="686" type="line"/>
      <point x="921" y="684"/>
      <point x="778" y="682"/>
      <point x="762" y="682" type="curve" smooth="yes"/>
      <point x="740" y="682"/>
      <point x="601" y="684"/>
      <point x="579" y="686" type="curve"/>
      <point x="579" y="630" type="line"/>
      <point x="686" y="630" type="line"/>
      <point x="686" y="385" type="line"/>
      <point x="315" y="385" type="line"/>
      <point x="315" y="630" type="line"/>
      <point x="422" y="630" type="line"/>
      <point x="422" y="686" type="line"/>
      <point x="399" y="684"/>
      <point x="256" y="682"/>
      <point x="240" y="682" type="curve" smooth="yes"/>
      <point x="218" y="682"/>
      <point x="79" y="684"/>
      <point x="57" y="686" type="curve"/>
      <point x="57" y="630" type="line"/>
      <point x="164" y="630" type="line"/>
      <point x="164" y="56" type="line"/>
      <point x="57" y="56" type="line"/>
      <point x="57" y="0" type="line"/>
      <point x="80" y="2"/>
      <point x="223" y="4"/>
      <point x="239" y="4" type="curve" smooth="yes"/>
      <point x="261" y="4"/>
      <point x="400" y="2"/>
      <point x="422" y="0" type="curve"/>
      <point x="422" y="56" type="line"/>
      <point x="315" y="56" type="line"/>
      <point x="315" y="329" type="line"/>
      <point x="686" y="329" type="line"/>
      <point x="686" y="56" type="line"/>
      <point x="579" y="56" type="line"/>
      <point x="579" y="0" type="line"/>
      <point x="602" y="2"/>
      <point x="745" y="4"/>
      <point x="761" y="4" type="curve" smooth="yes"/>
      <point x="783" y="4"/>
      <point x="922" y="2"/>
      <point x="944" y="0" type="curve"/>
      <point x="944" y="56" type="line"/>
      <point x="837" y="56" type="line"/>
    </contour>
  </outline>
</glyph>
<glyph name="O" format="2">
  <advance width="968"/>
  <unicode hex="004F"/>
  <outline>
    <contour>
      <point x="892" y="339" type="curve" smooth="yes"/>
      <point x="892" y="535"/>
      <point x="753" y="698"/>
      <point x="484" y="698" type="curve" smooth="yes"/>
      <point x="209" y="698"/>
      <point x="75" y="531"/>
      <point x="75" y="339" type="curve" smooth="yes"/>
      <point x="75" y="145"/>
      <point x="215" y="-12"/>
      <point x="483" y="-12" type="curve" smooth="yes"/>
      <point x="757" y="-12"/>
      <point x="892" y="149"/>
    </contour>
    <contour>
      <point x="483" y="41" type="curve" smooth="yes"/>
      <point x="421" y="41"/>
      <point x="340" y="62"/>
      <point x="288" y="137" type="curve" smooth="yes"/>
      <point x="242" y="205"/>
      <point x="238" y="299"/>
      <point x="238" y="354" type="curve" smooth="yes"/>
      <point x="238" y="421"/>
      <point x="244" y="502"/>
      <point x="294" y="566" type="curve" smooth="yes"/>
      <point x="336" y="618"/>
      <point x="405" y="647"/>
      <point x="483" y="647" type="curve" smooth="yes"/>
      <point x="729" y="647"/>
      <point x="729" y="415"/>
      <point x="729" y="354" type="curve" smooth="yes"/>
      <point x="729" y="278"/>
      <point x="720" y="202"/>
      <point x="681" y="140" type="curve" smooth="yes"/>
      <point x="635" y="69"/>
      <point x="557" y="41"/>
    </contour>
  </outline>
</glyph>
<glyph name="R" format="2">
  <advance width="959"/>
  <unicode hex="0052"/>
  <outline>
    <contour>
      <point x="630" y="339" type="curve"/>
      <point x="685" y="356"/>
      <point x="795" y="401"/>
      <point x="795" y="498" type="curve" smooth="yes"/>
      <point x="795" y="606"/>
      <point x="665" y="686"/>
      <point x="467" y="686" type="curve" smooth="yes"/>
      <point x="57" y="686" type="line"/>
      <point x="57" y="630" type="line"/>
      <point x="164" y="630" type="line"/>
      <point x="164" y="56" type="line"/>
      <point x="57" y="56" type="line"/>
      <point x="57" y="0" type="line"/>
      <point x="81" y="2"/>
      <point x="227" y="4"/>
      <point x="236" y="4" type="curve" smooth="yes"/>
      <point x="239" y="4"/>
      <point x="388" y="2"/>
      <point x="415" y="0" type="curve"/>
      <point x="415" y="56" type="line"/>
      <point x="308" y="56" type="line"/>
      <point x="308" y="320" type="line"/>
      <point x="447" y="320" type="line" smooth="yes"/>
      <point x="466" y="320"/>
      <point x="508" y="320"/>
      <point x="549" y="287" type="curve" smooth="yes"/>
      <point x="585" y="259"/>
      <point x="585" y="235"/>
      <point x="585" y="163" type="curve" smooth="yes"/>
      <point x="585" y="83"/>
      <point x="585" y="-12"/>
      <point x="816" y="-12" type="curve" smooth="yes"/>
      <point x="935" y="-12"/>
      <point x="951" y="77"/>
      <point x="951" y="99" type="curve" smooth="yes"/>
      <point x="951" y="124"/>
      <point x="933" y="124"/>
      <point x="919" y="124" type="curve" smooth="yes"/>
      <point x="905" y="124"/>
      <point x="890" y="124"/>
      <point x="888" y="101" type="curve" smooth="yes"/>
      <point x="883" y="47"/>
      <point x="848" y="34"/>
      <point x="826" y="34" type="curve" smooth="yes"/>
      <point x="761" y="34"/>
      <point x="752" y="99"/>
      <point x="742" y="177" type="curve" smooth="yes"/>
      <point x="732" y="244"/>
      <point x="724" y="304"/>
    </contour>
    <contour>
      <point x="453" y="366" type="curve" smooth="yes"/>
      <point x="308" y="366" type="line"/>
      <point x="308" y="630" type="line"/>
      <point x="457" y="630" type="line" smooth="yes"/>
      <point x="618" y="630"/>
      <point x="632" y="563"/>
      <point x="632" y="498" type="curve" smooth="yes"/>
      <point x="632" y="435"/>
      <point x="619" y="366"/>
    </contour>
  </outline>
</glyph>
<glyph name="Y" format="2">
  <advance width="967"/>
  <unicode hex="0059"/>
  <outline>
    <contour>
      <point x="822" y="614" type="line" smooth="yes"/>
      <point x="831" y="625"/>
      <point x="832" y="626"/>
      <point x="856" y="628" type="curve" smooth="yes"/>
      <point x="871" y="629"/>
      <point x="891" y="630"/>
      <point x="906" y="630" type="curve" smooth="yes"/>
      <point x="936" y="630" type="line"/>
      <point x="936" y="686" type="line"/>
      <point x="895" y="683"/>
      <point x="855" y="682"/>
      <point x="814" y="682" type="curve" smooth="yes"/>
      <point x="777" y="682"/>
      <point x="687" y="685"/>
      <point x="670" y="686" type="curve"/>
      <point x="670" y="630" type="line"/>
      <point x="692" y="630"/>
      <point x="715" y="630"/>
      <point x="739" y="624" type="curve"/>
      <point x="530" y="357" type="line"/>
      <point x="315" y="630" type="line"/>
      <point x="390" y="630" type="line"/>
      <point x="390" y="686" type="line"/>
      <point x="341" y="682"/>
      <point x="251" y="682"/>
      <point x="199" y="682" type="curve" smooth="yes"/>
      <point x="137" y="682"/>
      <point x="45" y="685"/>
      <point x="31" y="686" type="curve"/>
      <point x="31" y="630" type="line"/>
      <point x="132" y="630" type="line"/>
      <point x="411" y="274" type="line"/>
      <point x="411" y="56" type="line"/>
      <point x="304" y="56" type="line"/>
      <point x="304" y="0" type="line"/>
      <point x="328" y="2"/>
      <point x="474" y="4"/>
      <point x="483" y="4" type="curve" smooth="yes"/>
      <point x="521" y="4"/>
      <point x="643" y="1"/>
      <point x="662" y="0" type="curve"/>
      <point x="662" y="56" type="line"/>
      <point x="555" y="56" type="line"/>
      <point x="555" y="274" type="line"/>
    </contour>
  </outline>
</glyph>
<glyph name="bracketright" format="2">
  <advance width="364"/>
  <unicode hex="005D"/>
  <outline>
    <contour>
      <point x="219" y="750" type="line"/>
      <point x="32" y="750" type="line"/>
      <point x="32" y="677" type="line"/>
      <point x="146" y="677" type="line"/>
      <point x="146" y="-177" type="line"/>
      <point x="32" y="-177" type="line"/>
      <point x="32" y="-250" type="line"/>
      <point x="219" y="-250" type="line"/>
    </contour>
  </outline>
</glyph>
<glyph name="b" format="2">
  <advance width="718"/>
  <unicode hex="0062"/>
  <outline>
    <contour>
      <point x="242" y="694" type="line"/>
      <point x="55" y="686" type="line"/>
      <point x="55" y="630" type="line"/>
      <point x="114" y="630"/>
      <point x="122" y="630"/>
      <point x="122" y="591" type="curve" smooth="yes"/>
      <point x="122" y="0" type="line"/>
      <point x="167" y="0" type="line" smooth="yes"/>
      <point x="183" y="0"/>
      <point x="184" y="1"/>
      <point x="189" y="5" type="curve"/>
      <point x="198" y="16"/>
      <point x="218" y="44"/>
      <point x="227" y="55" type="curve"/>
      <point x="294" y="-2"/>
      <point x="360" y="-6"/>
      <point x="393" y="-6" type="curve" smooth="yes"/>
      <point x="565" y="-6"/>
      <point x="670" y="91"/>
      <point x="670" y="223" type="curve" smooth="yes"/>
      <point x="670" y="344"/>
      <point x="581" y="450"/>
      <point x="407" y="450" type="curve" smooth="yes"/>
      <point x="343" y="450"/>
      <point x="287" y="433"/>
      <point x="242" y="405" type="curve"/>
    </contour>
    <contour>
      <point x="249" y="341" type="line"/>
      <point x="277" y="375"/>
      <point x="330" y="404"/>
      <point x="393" y="404" type="curve" smooth="yes"/>
      <point x="531" y="404"/>
      <point x="531" y="286"/>
      <point x="531" y="225" type="curve" smooth="yes"/>
      <point x="531" y="163"/>
      <point x="531" y="40"/>
      <point x="381" y="40" type="curve" smooth="yes"/>
      <point x="327" y="40"/>
      <point x="282" y="65"/>
      <point x="249" y="112" type="curve"/>
    </contour>
  </outline>
</glyph>
<glyph name="d" format="2">
  <advance width="718"/>
  <unicode hex="0064"/>
  <outline>
    <contour>
      <point x="408" y="686" type="line"/>
      <point x="408" y="630" type="line"/>
      <point x="467" y="630"/>
      <point x="475" y="630"/>
      <point x="475" y="591" type="curve" smooth="yes"/>
      <point x="475" y="408" type="line"/>
      <point x="413" y="446"/>
      <point x="357" y="450"/>
      <point x="324" y="450" type="curve" smooth="yes"/>
      <point x="145" y="450"/>
      <point x="47" y="348"/>
      <point x="47" y="221" type="curve" smooth="yes"/>
      <point x="47" y="97"/>
      <point x="140" y="-6"/>
      <point x="311" y="-6" type="curve" smooth="yes"/>
      <point x="375" y="-6"/>
      <point x="428" y="14"/>
      <point x="468" y="42" type="curve"/>
      <point x="468" y="-6" type="line"/>
      <point x="662" y="0" type="line"/>
      <point x="662" y="56" type="line"/>
      <point x="603" y="56"/>
      <point x="595" y="56"/>
      <point x="595" y="95" type="curve" smooth="yes"/>
      <point x="595" y="694" type="line"/>
    </contour>
    <contour>
      <point x="468" y="116" type="line"/>
      <point x="445" y="83"/>
      <point x="396" y="40"/>
      <point x="323" y="40" type="curve" smooth="yes"/>
      <point x="186" y="40"/>
      <point x="186" y="160"/>
      <point x="186" y="219" type="curve" smooth="yes"/>
      <point x="186" y="281"/>
      <point x="186" y="404"/>
      <point x="336" y="404" type="curve" smooth="yes"/>
      <point x="420" y="404"/>
      <point x="465" y="348"/>
      <point x="468" y="344" type="curve"/>
    </contour>
  </outline>
</glyph>
<glyph name="o" format="2">
  <advance width="647"/>
  <unicode hex="006F"/>
  <outline>
    <contour>
      <point x="606" y="218" type="curve" smooth="yes"/>
      <point x="606" y="337"/>
      <point x="519" y="453"/>
      <point x="323" y="453" type="curve" smooth="yes"/>
      <point x="125" y="453"/>
      <point x="40" y="336"/>
      <point x="40" y="218" type="curve" smooth="yes"/>
      <point x="40" y="101"/>
      <point x="129" y="-6"/>
      <point x="323" y="-6" type="curve" smooth="yes"/>
      <point x="518" y="-6"/>
      <point x="606" y="102"/>
    </contour>
    <contour>
      <point x="323" y="45" type="curve" smooth="yes"/>
      <point x="179" y="45"/>
      <point x="179" y="144"/>
      <point x="179" y="230" type="curve" smooth="yes"/>
      <point x="179" y="310"/>
      <point x="179" y="407"/>
      <point x="323" y="407" type="curve" smooth="yes"/>
      <point x="467" y="407"/>
      <point x="467" y="310"/>
      <point x="467" y="230" type="curve" smooth="yes"/>
      <point x="467" y="144"/>
      <point x="467" y="45"/>
    </contour>
  </outline>
</glyph>
<glyph name="u" format="2">
  <advance width="718"/>
  <unicode hex="0075"/>
  <outline>
    <contour>
      <point x="418" y="442" type="line"/>
      <point x="418" y="386" type="line"/>
      <point x="477" y="386"/>
      <point x="485" y="386"/>
      <point x="485" y="347" type="curve" smooth="yes"/>
      <point x="485" y="162" type="line" smooth="yes"/>
      <point x="485" y="79"/>
      <point x="421" y="40"/>
      <point x="345" y="40" type="curve" smooth="yes"/>
      <point x="259" y="40"/>
      <point x="258" y="62"/>
      <point x="258" y="110" type="curve" smooth="yes"/>
      <point x="258" y="450" type="line"/>
      <point x="64" y="442" type="line"/>
      <point x="64" y="386" type="line"/>
      <point x="123" y="386"/>
      <point x="131" y="386"/>
      <point x="131" y="347" type="curve" smooth="yes"/>
      <point x="131" y="121" type="line" smooth="yes"/>
      <point x="131" y="5"/>
      <point x="242" y="-6"/>
      <point x="328" y="-6" type="curve" smooth="yes"/>
      <point x="361" y="-6"/>
      <point x="435" y="-6"/>
      <point x="492" y="65" type="curve"/>
      <point x="492" y="-6" type="line"/>
      <point x="679" y="0" type="line"/>
      <point x="679" y="56" type="line"/>
      <point x="620" y="56"/>
      <point x="612" y="56"/>
      <point x="612" y="95" type="curve" smooth="yes"/>
      <point x="612" y="450" type="line"/>
    </contour>
  </outline>
</glyph>
<glyph name="v" format="2">
  <advance width="682"/>
  <unicode hex="0076"/>
  <outline>
    <contour>
      <point x="573" y="371" type="line" smooth="yes"/>
      <point x="580" y="384"/>
      <point x="581" y="385"/>
      <point x="602" y="387" type="curve" smooth="yes"/>
      <point x="614" y="388"/>
      <point x="639" y="388"/>
      <point x="646" y="388" type="curve"/>
      <point x="646" y="444" type="line"/>
      <point x="615" y="442"/>
      <point x="594" y="440"/>
      <point x="562" y="440" type="curve" smooth="yes"/>
      <point x="532" y="440"/>
      <point x="493" y="441"/>
      <point x="463" y="444" type="curve"/>
      <point x="463" y="388" type="line"/>
      <point x="489" y="388"/>
      <point x="495" y="386"/>
      <point x="507" y="382" type="curve"/>
      <point x="373" y="119" type="line"/>
      <point x="236" y="388" type="line"/>
      <point x="283" y="388" type="line"/>
      <point x="283" y="444" type="line"/>
      <point x="240" y="442"/>
      <point x="196" y="440"/>
      <point x="153" y="440" type="curve" smooth="yes"/>
      <point x="114" y="440"/>
      <point x="75" y="441"/>
      <point x="36" y="444" type="curve"/>
      <point x="36" y="388" type="line"/>
      <point x="101" y="388" type="line"/>
      <point x="288" y="22" type="line" smooth="yes"/>
      <point x="301" y="-4"/>
      <point x="311" y="-6"/>
      <point x="341" y="-6" type="curve" smooth="yes"/>
      <point x="371" y="-6"/>
      <point x="380" y="-4"/>
      <point x="394" y="22" type="curve" smooth="yes"/>
    </contour>
  </outline>
</glyph>
<glyph name="questiondown" format="2">
  <advance width="611"/>
  <unicode hex="00BF"/>
  <outline>
    <contour>
      <point x="369" y="418" type="curve" smooth="yes"/>
      <point x="369" y="466"/>
      <point x="330" y="500"/>
      <point x="288" y="500" type="curve" smooth="yes"/>
      <point x="240" y="500"/>
      <point x="206" y="461"/>
      <point x="206" y="419" type="curve" smooth="yes"/>
      <point x="206" y="371"/>
      <point x="245" y="337"/>
      <point x="287" y="337" type="curve" smooth="yes"/>
      <point x="335" y="337"/>
      <point x="369" y="376"/>
    </contour>
    <contour>
      <point x="256" y="215" type="line" smooth="yes"/>
      <point x="256" y="136"/>
      <point x="212" y="78"/>
      <point x="141" y="34" type="curve" smooth="yes"/>
      <point x="120" y="21"/>
      <point x="75" y="-7"/>
      <point x="75" y="-70" type="curve" smooth="yes"/>
      <point x="75" y="-200"/>
      <point x="245" y="-200"/>
      <point x="288" y="-200" type="curve" smooth="yes"/>
      <point x="344" y="-200"/>
      <point x="536" y="-200"/>
      <point x="536" y="-71" type="curve" smooth="yes"/>
      <point x="536" y="-28"/>
      <point x="505" y="-1"/>
      <point x="467" y="-1" type="curve" smooth="yes"/>
      <point x="422" y="-1"/>
      <point x="397" y="-33"/>
      <point x="397" y="-70" type="curve" smooth="yes"/>
      <point x="397" y="-95"/>
      <point x="409" y="-119"/>
      <point x="431" y="-130" type="curve"/>
      <point x="380" y="-154"/>
      <point x="311" y="-154"/>
      <point x="293" y="-154" type="curve" smooth="yes"/>
      <point x="216" y="-154"/>
      <point x="214" y="-133"/>
      <point x="214" y="-77" type="curve" smooth="yes"/>
      <point x="214" y="-38"/>
      <point x="218" y="-23"/>
      <point x="235" y="-3" type="curve" smooth="yes"/>
      <point x="319" y="95"/>
      <point x="319" y="181"/>
      <point x="319" y="222" type="curve" smooth="yes"/>
      <point x="319" y="266"/>
      <point x="319" y="269"/>
      <point x="287" y="269" type="curve" smooth="yes"/>
      <point x="257" y="269"/>
      <point x="256" y="262"/>
      <point x="256" y="237" type="curve" smooth="yes"/>
    </contour>
  </outline>
</glyph>
<glyph name="oslash" format="2">
  <advance width="647"/>
  <unicode hex="00F8"/>
  <outline>
    <contour>
      <point x="561" y="529" type="line"/>
      <point x="524" y="555" type="line"/>
      <point x="442" y="436" type="line"/>
      <point x="394" y="452"/>
      <point x="343" y="453"/>
      <point x="323" y="453" type="curve" smooth="yes"/>
      <point x="125" y="453"/>
      <point x="40" y="336"/>
      <point x="40" y="218" type="curve" smooth="yes"/>
      <point x="40" y="135"/>
      <point x="86" y="62"/>
      <point x="161" y="28" type="curve"/>
      <point x="85" y="-84" type="line"/>
      <point x="122" y="-110" type="line"/>
      <point x="205" y="10" type="line"/>
      <point x="237" y="0"/>
      <point x="279" y="-6"/>
      <point x="323" y="-6" type="curve" smooth="yes"/>
      <point x="518" y="-6"/>
      <point x="606" y="102"/>
      <point x="606" y="218" type="curve" smooth="yes"/>
      <point x="606" y="253"/>
      <point x="599" y="356"/>
      <point x="486" y="418" type="curve"/>
    </contour>
    <contour>
      <point x="199" y="83" type="line"/>
      <point x="167" y="117"/>
      <point x="167" y="172"/>
      <point x="167" y="219" type="curve" smooth="yes"/>
      <point x="167" y="295"/>
      <point x="167" y="407"/>
      <point x="323" y="407" type="curve" smooth="yes"/>
      <point x="366" y="407"/>
      <point x="398" y="396"/>
      <point x="410" y="390" type="curve"/>
    </contour>
    <contour>
      <point x="439" y="351" type="line"/>
      <point x="440" y="353"/>
      <point x="445" y="359"/>
      <point x="447" y="359" type="curve" smooth="yes"/>
      <point x="449" y="359"/>
      <point x="467" y="337"/>
      <point x="474" y="300" type="curve" smooth="yes"/>
      <point x="479" y="273"/>
      <point x="479" y="245"/>
      <point x="479" y="219" type="curve" smooth="yes"/>
      <point x="479" y="143"/>
      <point x="479" y="40"/>
      <point x="323" y="40" type="curve" smooth="yes"/>
      <point x="312" y="40"/>
      <point x="271" y="40"/>
      <point x="237" y="56" type="curve"/>
    </contour>
  </outline>
</glyph>
<glyph name="breve" format="2">
  <advance width="647"/>
  <unicode hex="02D8"/>
  <outline>
    <contour>
      <point x="477" y="694" type="line"/>
      <point x="473" y="604"/>
      <point x="380" y="576"/>
      <point x="323" y="576" type="curve" smooth="yes"/>
      <point x="266" y="576"/>
      <point x="173" y="604"/>
      <point x="169" y="694" type="curve"/>
      <point x="123" y="694" type="line"/>
      <point x="126" y="573"/>
      <point x="226" y="503"/>
      <point x="323" y="503" type="curve" smooth="yes"/>
      <point x="420" y="503"/>
      <point x="520" y="574"/>
      <point x="523" y="694" type="curve"/>
    </contour>
  </outline>
</glyph>
<glyph name="ring" format="2">
  <advance width="967"/>
  <unicode hex="02DA"/>
  <outline>
    <contour>
      <point x="622" y="622" type="curve" smooth="yes"/>
      <point x="622" y="663"/>
      <point x="583" y="706"/>
      <point x="484" y="706" type="curve" smooth="yes"/>
      <point x="374" y="706"/>
      <point x="345" y="655"/>
      <point x="345" y="623" type="curve" smooth="yes"/>
      <point x="345" y="582"/>
      <point x="384" y="539"/>
      <point x="483" y="539" type="curve" smooth="yes"/>
      <point x="593" y="539"/>
      <point x="622" y="590"/>
    </contour>
    <contour>
      <point x="484" y="581" type="curve" smooth="yes"/>
      <point x="438" y="581"/>
      <point x="408" y="581"/>
      <point x="408" y="622" type="curve" smooth="yes"/>
      <point x="408" y="664"/>
      <point x="437" y="664"/>
      <point x="483" y="664" type="curve" smooth="yes"/>
      <point x="529" y="664"/>
      <point x="559" y="664"/>
      <point x="559" y="623" type="curve" smooth="yes"/>
      <point x="559" y="581"/>
      <point x="530" y="581"/>
    </contour>
  </outline>
</glyph>
<glyph name="tilde" format="2">
  <advance width="647"/>
  <unicode hex="02DC"/>
  <outline>
    <contour>
      <point x="503" y="694" type="line"/>
      <point x="486" y="677"/>
      <point x="453" y="650"/>
      <point x="412" y="650" type="curve" smooth="yes"/>
      <point x="388" y="650"/>
      <point x="368" y="657"/>
      <point x="332" y="673" type="curve" smooth="yes"/>
      <point x="308" y="684"/>
      <point x="284" y="694"/>
      <point x="257" y="694" type="curve" smooth="yes"/>
      <point x="213" y="694"/>
      <point x="197" y="679"/>
      <point x="111" y="595" type="curve"/>
      <point x="143" y="562" type="line"/>
      <point x="160" y="579"/>
      <point x="193" y="606"/>
      <point x="234" y="606" type="curve" smooth="yes"/>
      <point x="258" y="606"/>
      <point x="278" y="599"/>
      <point x="314" y="583" type="curve" smooth="yes"/>
      <point x="338" y="572"/>
      <point x="362" y="562"/>
      <point x="389" y="562" type="curve" smooth="yes"/>
      <point x="433" y="562"/>
      <point x="449" y="577"/>
      <point x="535" y="661" type="curve"/>
    </contour>
  </outline>
</glyph>
<glyph name="Pi" format="2">
  <advance width="1002"/>
  <unicode hex="03A0"/>
  <outline>
    <contour>
      <point x="837" y="623" type="line"/>
      <point x="944" y="623" type="line"/>
      <point x="944" y="679" type="line"/>
      <point x="57" y="679" type="line"/>
      <point x="57" y="623" type="line"/>
      <point x="164" y="623" type="line"/>
      <point x="164" y="56" type="line"/>
      <point x="57" y="56" type="line"/>
      <point x="57" y="0" type="line"/>
      <point x="80" y="2"/>
      <point x="223" y="4"/>
      <point x="239" y="4" type="curve" smooth="yes"/>
      <point x="261" y="4"/>
      <point x="400" y="2"/>
      <point x="422" y="0" type="curve"/>
      <point x="422" y="56" type="line"/>
      <point x="315" y="56" type="line"/>
      <point x="315" y="623" type="line"/>
      <point x="686" y="623" type="line"/>
      <point x="686" y="56" type="line"/>
      <point x="579" y="56" type="line"/>
      <point x="579" y="0" type="line"/>
      <point x="602" y="2"/>
      <point x="745" y="4"/>
      <point x="761" y="4" type="curve" smooth="yes"/>
      <point x="783" y="4"/>
      <point x="922" y="2"/>
      <point x="944" y="0" type="curve"/>
      <point x="944" y="56" type="line"/>
      <point x="837" y="56" type="line"/>
    </contour>
  </outline>
</glyph>
<glyph name="Phi" format="2">
  <advance width="931"/>
  <unicode hex="03A6"/>
  <outline>
    <contour>
      <point x="662" y="630" type="line"/>
      <point x="662" y="686" type="line"/>
      <point x="614" y="682"/>
      <point x="511" y="682"/>
      <point x="459" y="682" type="curve" smooth="yes"/>
      <point x="407" y="682"/>
      <point x="304" y="682"/>
      <point x="256" y="686" type="curve"/>
      <point x="256" y="630" type="line"/>
      <point x="390" y="630" type="line"/>
      <point x="390" y="525" type="line"/>
      <point x="146" y="506"/>
      <point x="75" y="414"/>
      <point x="75" y="343" type="curve" smooth="yes"/>
      <point x="75" y="274"/>
      <point x="144" y="180"/>
      <point x="390" y="161" type="curve"/>
      <point x="390" y="56" type="line"/>
      <point x="256" y="56" type="line"/>
      <point x="256" y="0" type="line"/>
      <point x="304" y="4"/>
      <point x="407" y="4"/>
      <point x="459" y="4" type="curve" smooth="yes"/>
      <point x="511" y="4"/>
      <point x="614" y="4"/>
      <point x="662" y="0" type="curve"/>
      <point x="662" y="56" type="line"/>
      <point x="528" y="56" type="line"/>
      <point x="528" y="142" type="line" smooth="yes"/>
      <point x="528" y="159"/>
      <point x="529" y="160"/>
      <point x="539" y="161" type="curve" smooth="yes"/>
      <point x="758" y="176"/>
      <point x="855" y="259"/>
      <point x="855" y="343" type="curve" smooth="yes"/>
      <point x="855" y="435"/>
      <point x="743" y="511"/>
      <point x="541" y="525" type="curve" smooth="yes"/>
      <point x="529" y="526"/>
      <point x="528" y="527"/>
      <point x="528" y="544" type="curve" smooth="yes"/>
      <point x="528" y="630" type="line"/>
    </contour>
    <contour>
      <point x="390" y="207" type="line"/>
      <point x="274" y="217"/>
      <point x="231" y="265"/>
      <point x="231" y="343" type="curve" smooth="yes"/>
      <point x="231" y="419"/>
      <point x="271" y="469"/>
      <point x="390" y="479" type="curve"/>
    </contour>
    <contour>
      <point x="528" y="480" type="line"/>
      <point x="658" y="472"/>
      <point x="699" y="421"/>
      <point x="699" y="343" type="curve" smooth="yes"/>
      <point x="699" y="265"/>
      <point x="658" y="214"/>
      <point x="528" y="206" type="curve"/>
    </contour>
  </outline>
</glyph>
<glyph name="Psi" format="2">
  <advance width="1002"/>
  <unicode hex="03A8"/>
  <outline>
    <contour>
      <point x="563" y="630" type="line"/>
      <point x="697" y="630" type="line"/>
      <point x="697" y="686" type="line"/>
      <point x="649" y="682"/>
      <point x="546" y="682"/>
      <point x="494" y="682" type="curve" smooth="yes"/>
      <point x="442" y="682"/>
      <point x="339" y="682"/>
      <point x="291" y="686" type="curve"/>
      <point x="291" y="630" type="line"/>
      <point x="425" y="630" type="line"/>
      <point x="425" y="212" type="line"/>
      <point x="288" y="241"/>
      <point x="287" y="365"/>
      <point x="286" y="420" type="curve" smooth="yes"/>
      <point x="286" y="424"/>
      <point x="285" y="543"/>
      <point x="183" y="543" type="curve" smooth="yes"/>
      <point x="111" y="543" type="line" smooth="yes"/>
      <point x="96" y="543"/>
      <point x="75" y="543"/>
      <point x="75" y="520" type="curve" smooth="yes"/>
      <point x="75" y="503"/>
      <point x="89" y="498"/>
      <point x="94" y="497" type="curve"/>
      <point x="146" y="491"/>
      <point x="147" y="436"/>
      <point x="148" y="397" type="curve" smooth="yes"/>
      <point x="149" y="360"/>
      <point x="166" y="281"/>
      <point x="225" y="231" type="curve" smooth="yes"/>
      <point x="289" y="178"/>
      <point x="376" y="165"/>
      <point x="425" y="161" type="curve"/>
      <point x="425" y="56" type="line"/>
      <point x="291" y="56" type="line"/>
      <point x="291" y="0" type="line"/>
      <point x="339" y="4"/>
      <point x="442" y="4"/>
      <point x="494" y="4" type="curve" smooth="yes"/>
      <point x="546" y="4"/>
      <point x="649" y="4"/>
      <point x="697" y="0" type="curve"/>
      <point x="697" y="56" type="line"/>
      <point x="563" y="56" type="line"/>
      <point x="563" y="161" type="line"/>
      <point x="633" y="166"/>
      <point x="697" y="181"/>
      <point x="754" y="217" type="curve" smooth="yes"/>
      <point x="843" y="274"/>
      <point x="853" y="377"/>
      <point x="853" y="399" type="curve" smooth="yes"/>
      <point x="853" y="423"/>
      <point x="855" y="491"/>
      <point x="901" y="497" type="curve" smooth="yes"/>
      <point x="909" y="498"/>
      <point x="926" y="500"/>
      <point x="926" y="520" type="curve" smooth="yes"/>
      <point x="926" y="543"/>
      <point x="906" y="543"/>
      <point x="891" y="543" type="curve" smooth="yes"/>
      <point x="818" y="543" type="line" smooth="yes"/>
      <point x="743" y="543"/>
      <point x="716" y="485"/>
      <point x="715" y="399" type="curve" smooth="yes"/>
      <point x="714" y="311"/>
      <point x="676" y="231"/>
      <point x="563" y="211" type="curve"/>
    </contour>
  </outline>
</glyph>
<glyph name="emdash" format="2">
  <advance width="1294"/>
  <unicode hex="2014"/>
  <outline>
    <contour>
      <point x="1285" y="251" type="line"/>
      <point x="1285" y="297" type="line"/>
      <point x="8" y="297" type="line"/>
      <point x="8" y="251" type="line"/>
    </contour>
  </outline>
</glyph>
<glyph name="quoteleft" format="2">
  <advance width="363"/>
  <unicode hex="2018"/>
  <outline>
    <contour>
      <point x="129" y="483" type="curve"/>
      <point x="137" y="571"/>
      <point x="186" y="621"/>
      <point x="226" y="651" type="curve"/>
      <point x="232" y="656"/>
      <point x="238" y="660"/>
      <point x="238" y="669" type="curve" smooth="yes"/>
      <point x="238" y="679"/>
      <point x="224" y="694"/>
      <point x="213" y="694" type="curve" smooth="yes"/>
      <point x="196" y="694"/>
      <point x="82" y="609"/>
      <point x="82" y="466" type="curve" smooth="yes"/>
      <point x="82" y="395"/>
      <point x="121" y="337"/>
      <point x="182" y="337" type="curve" smooth="yes"/>
      <point x="233" y="337"/>
      <point x="263" y="376"/>
      <point x="263" y="418" type="curve" smooth="yes"/>
      <point x="263" y="461"/>
      <point x="233" y="500"/>
      <point x="181" y="500" type="curve" smooth="yes"/>
      <point x="150" y="500"/>
      <point x="130" y="483"/>
    </contour>
  </outline>
</glyph>
<glyph name="Delta" format="2">
  <advance width="1073"/>
  <unicode hex="2206"/>
  <outline>
    <contour>
      <point x="599" y="676" type="line" smooth="yes"/>
      <point x="582" y="704"/>
      <point x="566" y="704"/>
      <point x="545" y="704" type="curve" smooth="yes"/>
      <point x="527" y="704" type="line" smooth="yes"/>
      <point x="506" y="704"/>
      <point x="490" y="704"/>
      <point x="473" y="676" type="curve" smooth="yes"/>
      <point x="76" y="30" type="line"/>
      <point x="69" y="20"/>
      <point x="69" y="18"/>
      <point x="69" y="14" type="curve" smooth="yes"/>
      <point x="69" y="0"/>
      <point x="82" y="0"/>
      <point x="97" y="0" type="curve" smooth="yes"/>
      <point x="975" y="0" type="line" smooth="yes"/>
      <point x="990" y="0"/>
      <point x="1003" y="0"/>
      <point x="1003" y="14" type="curve" smooth="yes"/>
      <point x="1003" y="18"/>
      <point x="1003" y="20"/>
      <point x="996" y="30" type="curve"/>
    </contour>
    <contour>
      <point x="489" y="566" type="line"/>
      <point x="757" y="130" type="line"/>
      <point x="221" y="130" type="line"/>
    </contour>
  </outline>
</glyph>
<glyph name="ffi" format="2">
  <advance width="1089"/>
  <outline>
    <contour>
      <point x="780" y="448" type="line"/>
      <point x="779" y="447"/>
      <point x="779" y="446"/>
      <point x="779" y="444" type="curve"/>
      <point x="597" y="444" type="line"/>
      <point x="597" y="536" type="line" smooth="yes"/>
      <point x="597" y="654"/>
      <point x="755" y="654"/>
      <point x="778" y="654" type="curve" smooth="yes"/>
      <point x="802" y="654"/>
      <point x="825" y="652"/>
      <point x="853" y="639" type="curve"/>
      <point x="839" y="632"/>
      <point x="819" y="612"/>
      <point x="819" y="577" type="curve" smooth="yes"/>
      <point x="819" y="536"/>
      <point x="850" y="506"/>
      <point x="890" y="506" type="curve" smooth="yes"/>
      <point x="932" y="506"/>
      <point x="962" y="535"/>
      <point x="962" y="578" type="curve" smooth="yes"/>
      <point x="962" y="632"/>
      <point x="916" y="700"/>
      <point x="789" y="700" type="curve" smooth="yes"/>
      <point x="706" y="700"/>
      <point x="622" y="688"/>
      <point x="561" y="654" type="curve"/>
      <point x="510" y="700"/>
      <point x="448" y="700"/>
      <point x="423" y="700" type="curve" smooth="yes"/>
      <point x="287" y="700"/>
      <point x="122" y="662"/>
      <point x="122" y="539" type="curve" smooth="yes"/>
      <point x="122" y="444" type="line"/>
      <point x="39" y="444" type="line"/>
      <point x="39" y="388" type="line"/>
      <point x="122" y="388" type="line"/>
      <point x="122" y="56" type="line"/>
      <point x="55" y="56" type="line"/>
      <point x="55" y="0" type="line"/>
      <point x="58" y="0"/>
      <point x="136" y="4"/>
      <point x="182" y="4" type="curve" smooth="yes"/>
      <point x="231" y="4"/>
      <point x="306" y="0"/>
      <point x="309" y="0" type="curve"/>
      <point x="309" y="56" type="line"/>
      <point x="242" y="56" type="line"/>
      <point x="242" y="388" type="line"/>
      <point x="484" y="388" type="line"/>
      <point x="484" y="56" type="line"/>
      <point x="417" y="56" type="line"/>
      <point x="417" y="0" type="line"/>
      <point x="420" y="0"/>
      <point x="498" y="4"/>
      <point x="544" y="4" type="curve" smooth="yes"/>
      <point x="593" y="4"/>
      <point x="668" y="0"/>
      <point x="671" y="0" type="curve"/>
      <point x="671" y="56" type="line"/>
      <point x="604" y="56" type="line"/>
      <point x="604" y="388" type="line"/>
      <point x="816" y="388" type="line" smooth="yes"/>
      <point x="840" y="388"/>
      <point x="846" y="388"/>
      <point x="846" y="353" type="curve" smooth="yes"/>
      <point x="846" y="56" type="line"/>
      <point x="779" y="56" type="line"/>
      <point x="779" y="0" type="line"/>
      <point x="782" y="0"/>
      <point x="860" y="4"/>
      <point x="906" y="4" type="curve" smooth="yes"/>
      <point x="955" y="4"/>
      <point x="1030" y="0"/>
      <point x="1033" y="0" type="curve"/>
      <point x="1033" y="56" type="line"/>
      <point x="966" y="56" type="line"/>
      <point x="966" y="454" type="line"/>
    </contour>
    <contour>
      <point x="235" y="444" type="line"/>
      <point x="235" y="536" type="line" smooth="yes"/>
      <point x="235" y="654"/>
      <point x="389" y="654"/>
      <point x="412" y="654" type="curve" smooth="yes"/>
      <point x="455" y="654"/>
      <point x="483" y="641"/>
      <point x="485" y="640" type="curve"/>
      <point x="467" y="630"/>
      <point x="450" y="607"/>
      <point x="450" y="577" type="curve" smooth="yes"/>
      <point x="450" y="558"/>
      <point x="458" y="530"/>
      <point x="484" y="516" type="curve"/>
      <point x="484" y="444" type="line"/>
    </contour>
  </outline>
</glyph>
<glyph name="suppress" format="2">
  <advance width="363"/>
  <outline>
    <contour>
      <point x="363" y="346" type="line"/>
      <point x="351" y="401" type="line"/>
      <point x="25" y="328" type="line"/>
      <point x="37" y="274" type="line"/>
    </contour>
  </outline>
</glyph>
